<?xml version="1.0" encoding="UTF-8" standalone="no"?>
<!-- Created with Inkscape (http://www.inkscape.org/) -->

<svg
   width="210mm"
   height="297mm"
   viewBox="0 0 210 297"
   version="1.1"
   id="svg5"
   xmlns="http://www.w3.org/2000/svg"
   xmlns:svg="http://www.w3.org/2000/svg">
  <defs
     id="defs2" />
  <g
     id="layer1">
    <path
       style="fill:#15a8e2;stroke:none;stroke-width:0.282457"
       d="m 51.708977,101.55545 3.316929,0.26458 -0.301535,1.05833 1.206151,2.11667 1.206151,-0.79375 1.507697,-0.26458 -3.316929,-4.233331 v -0.26459 c 0.629009,-0.55184 0.609406,-0.88619 -0.301535,-1.05833 l 0.603081,-0.52917 c -0.14957,-0.70376 -0.252392,-1.41226 -0.393814,-2.11666 -0.08924,-0.44413 -0.422454,-3.5442 -1.539961,-2.69034 -0.559648,0.42772 -0.35943,1.5699 -0.490299,2.16117 -0.481558,2.17382 -0.57835,4.25916 -1.495936,6.350001 m 45.331213,-5.909021 0.100747,0.17637 -0.100747,-0.17637 m -43.521981,1.14652 -0.301535,0.26458 0.301535,-0.26458 m 1.507697,0.26458 v 0.52917 h -0.603081 l 0.603081,-0.52917 m 44.024634,1.05834 0.301546,0.26458 -0.301546,-0.26458 m -44.024634,2.116661 -1.809232,-1.058331 v -0.52917 c 1.378025,-0.17658 1.710924,0.45551 1.809232,1.587501 m -22.615398,27.25208 c 4.223654,-1.17289 8.372225,-3.75205 12.363088,-5.49063 5.814569,-2.53312 11.962938,-4.58629 18.092319,-6.45239 3.147755,-0.95832 6.401352,-1.78356 9.649228,-2.43682 1.314705,-0.26431 3.591021,-0.20796 4.642791,-1.00303 0.954374,-0.72125 0.367876,-2.47888 0.221029,-3.40254 -0.451106,-2.84216 -1.310181,-7.60635 -4.86382,-8.799431 -3.163437,-1.06215 -7.678379,0.957501 -10.252309,2.413451 -6.823215,3.85974 -13.926265,9.20009 -21.409247,3.21098 5.137318,0 8.657781,-0.9353 13.267703,-2.91042 -1.926527,-1.15509 -5.538061,-0.96959 -7.840008,-1.30167 -3.361855,-0.48501 -8.187974,-2.588761 -11.430425,-0.96261 -2.522371,1.26506 -3.037093,5.01066 -3.329887,7.29136 -0.857877,6.68338 -0.08445,13.22573 0.889538,19.84375 m 23.520014,-26.10556 c 0.233086,0 0.04821,0.13171 -0.100405,0.0882 l 0.100405,-0.0882 m 1.206151,1.7639 v 0.79375 h -0.60307 v -0.79375 h 0.60307 m -5.427696,0.79375 -2.412301,1.05833 -5.427695,1.85208 c 3.18786,2.22171 8.742504,1.17793 8.443078,-2.91041 h -0.603082 m -21.409235,1.85208 0.603069,0.52917 v 1.05833 h 0.301547 v -1.5875 h -0.904616 m 12.061542,0.26458 v 0.26459 h 1.20615 l -1.20615,-0.26459 m 37.089252,0.79375 0.60307,0.52917 -0.60307,-0.52917 m 1.206151,1.32292 0.301535,0.26458 -0.301535,-0.26458 m -49.954994,1.23481 0.100747,0.17621 -0.100747,-0.17621 m 50.85961,-0.17648 0.603081,1.05834 h 0.301535 l -0.904616,-1.05834 m -52.467723,1.85209 0.301546,0.26458 -0.301546,-0.26458 m 1.507697,1.32291 v 0.79375 h 0.301534 l -0.301534,-0.79375 m -3.618464,1.5875 0.301535,0.26459 -0.301535,-0.26459 m 2.713848,0 -1.206151,2.11667 0.60307,-0.26458 v 0.26458 l -0.904616,0.26458 0.301546,1.05834 -0.603081,-0.26459 -0.301535,3.175 -0.301546,1.32292 -12.966158,2.91042 v 0.52916 c 2.268475,0.60484 5.242852,1.2237 7.538462,0.52917 1.188372,1.6547 6.216829,1.15544 5.427696,3.96875 l 3.92001,-2.38125 0.904616,0.26458 c -0.283756,-1.16813 -3.862115,-1.99786 -5.126161,-1.85208 0.07716,-1.58406 2.123132,-1.66132 3.618464,-1.85208 l -0.603081,-1.05834 c 1.110874,-0.52705 1.478749,-2.36775 0,-2.64583 1.095192,-1.99628 1.062928,-3.91239 0.603081,-6.08542 h -0.301535 l -0.603081,0.52917 v -0.52917 m -11.458472,29.10417 c 3.79607,-4.72837 10.510731,-7.38082 15.981551,-10.31875 0,1.59173 1.091568,3.03768 1.507697,4.49792 0.785509,2.75643 1.630714,5.45888 2.412302,8.20208 1.399747,4.91331 -0.44959,10.59339 0.904616,15.34583 0.534632,1.87669 1.734754,6.56484 5.12616,5.82084 5.672543,-1.24434 6.113996,-9.2882 7.236928,-13.22917 0.441144,-1.54834 2.398135,-4.06215 4.824614,-3.175 2.221737,0.81227 2.232598,2.80908 2.713848,4.49792 0.853057,2.99349 1.353613,6.41191 3.316929,8.99583 0.921505,1.21285 3.147755,3.91054 5.427695,2.91042 3.136302,-1.3761 2.935172,-5.275 3.618464,-7.67292 0.708911,-2.48814 1.395222,-7.00961 0.603069,-9.78958 -0.40888,-1.43484 -1.002605,-5.21177 -0.603069,-6.61459 0.56448,-1.98146 1.369887,-4.13491 2.110766,-6.08541 0.707715,-1.86293 1.27762,-3.95499 1.809232,-5.82084 0.285557,-1.00197 -0.08297,-2.33336 0.904616,-2.11666 l 1.206151,-10.84792 c 4.577966,-0.69136 8.271511,-1.58168 12.966169,-1.05833 -1.373512,3.1787 -5.124349,5.63589 -8.141543,7.60174 -1.693749,1.10384 -4.000813,1.9431 -3.316929,4.03992 l 6.042538,-2.56884 3.305156,-0.077 v -0.79375 h 0.603081 v 0.79375 c 1.486282,-0.0275 4.034889,0.12647 4.824614,-1.05833 l -0.301535,-0.26459 -4.824614,0.26459 -2.412313,0.52916 c 2.274811,-1.65364 4.88161,-2.93687 6.360963,-5.29166 0.476121,-0.7583 1.253185,-2.16376 0.564777,-2.98926 -1.000508,-1.20015 -3.919395,-1.24196 -5.418043,-1.24408 -4.980818,-0.007 -9.385087,1.29408 -14.17232,2.32014 -15.681213,3.3602 -31.76317,9.80757 -45.53233,17.10002 -3.679676,1.94865 -7.142551,4.16824 -9.950479,7.03818 -0.889538,0.9091 -2.407173,2.17514 -2.54317,3.43852 -0.195101,1.81531 2.848033,2.27621 4.352106,2.31378 4.318633,0.10742 8.886946,-1.15914 12.966157,-2.23864 1.122636,-0.29712 3.864223,-0.66225 4.021931,-1.94971 0.225542,-1.84282 -2.91769,-1.10146 -4.021931,-0.96308 -4.944929,0.61991 -9.515955,0.80089 -14.473854,0.45746 m 67.544658,-26.19375 0.301535,0.26458 -0.301535,-0.26458 m 0.301535,0.79375 0.301535,1.05833 h 0.301546 l -0.603081,-1.05833 m -5.72923,0.52917 0.301535,0.26458 -0.301535,-0.26458 m 3.718869,0.44106 0.100747,0.17621 -0.100747,-0.17621 m 2.311896,0.88185 0.603081,0.52917 v -0.52917 h -0.603081 m -59.704639,0.26459 0.301535,0.26458 -0.301535,-0.26458 m 54.276944,0 0.301546,0.26458 -0.301546,-0.26458 m 0,0.52916 0.603081,0.52917 v -0.52917 h -0.603081 m -56.689257,1.05834 0.301535,0.26458 -0.301535,-0.26458 m 5.427696,0.52916 -0.904616,0.52917 0.603081,1.32292 -1.206162,-0.26459 v -1.05833 l 1.507697,-0.52917 m 49.452329,0.52917 0.301546,0.26458 -0.301546,-0.26458 m -52.166177,0.35269 c 0.233086,0 0.04821,0.13176 -0.100405,0.0884 l 0.100405,-0.0884 m -0.603081,0.17648 v 1.05833 l -2.713848,0.52917 0.301546,1.85208 -1.206162,-1.05833 1.206162,-1.85209 0.60307,0.52917 1.809232,-1.05833 m 4.523079,0.26458 0.301547,0.26458 -0.301547,-0.26458 m 54.880036,1.94019 c 0.233086,0 0.04821,0.13176 -0.100405,0.0884 l 0.100405,-0.0884 m 1.507686,0.26458 c 0.233097,0 0.04821,0.13177 -0.100405,0.0884 l 0.100405,-0.0884 m -60.006185,1.4994 h -0.904616 l 0.301546,-0.52917 0.60307,0.52917 m 0.904616,0 -0.301535,0.26458 0.301535,-0.26458 m 49.753875,0 0.301535,1.5875 -0.301535,-1.5875 m -48.547713,0.79375 -0.904616,-0.52917 0.904616,0.52917 m -1.206162,0.52916 -0.301535,0.26459 0.301535,-0.26459 m 58.498499,0 -0.301546,1.05834 0.301546,-1.05834 m -61.815417,1.5875 0.301535,0.79375 h 0.301535 v -0.79375 h -0.60307 m 55.784641,0 0.301535,0.26459 -0.301535,-0.26459 m 5.72923,0.26459 -0.301535,0.79375 0.301535,-0.79375 m -9.649229,1.05833 0.301535,0.26458 -0.301535,-0.26458 m 3.316918,0.52917 -0.60307,1.32291 h 0.301535 l 0.301535,-1.32291 m 5.729241,0.26458 -0.301546,1.05833 h 0.301546 v -1.05833 m -52.166188,1.5875 0.603081,1.85208 h 0.301535 l -0.904616,-1.85208 m -2.713848,1.5875 2.001313,2.93502 -2.001313,4.20873 c 1.174503,-0.13044 7.430216,-0.82153 4.52308,-2.64583 0.402863,-2.26193 -1.263146,-3.61448 -2.713848,-5.29167 l -1.809232,0.79375 m 53.673874,-0.79375 v 0.79375 h 0.301546 l 0.301535,-0.79375 h -0.603081 m -0.301535,1.05833 0.301535,0.26459 -0.301535,-0.26459 m -53.975408,0.26459 0.301535,0.26458 -0.301535,-0.26458 m 53.372327,0.52916 -0.301535,1.05834 h 0.301535 v -1.05834 m -6.935381,0.79375 0.301535,0.26459 -0.301535,-0.26459 m -46.135411,1.85209 0.301534,0.26458 -0.301534,-0.26458 m 0.301534,0.52916 0.301547,0.26459 -0.301547,-0.26459 m 44.627715,0.26459 0.301546,0.26458 -0.301546,-0.26458 m -1.507686,0.52916 c -0.942612,2.01084 0.669718,2.6805 2.713848,3.175 -0.368479,-1.36392 -1.280036,-2.53603 -2.713848,-3.175 m 6.633847,0.26459 -0.904616,1.05833 0.904616,-1.05833 m -6.030777,5.02708 -0.301535,0.52917 0.301535,-0.52917 m -0.904616,0.52917 -0.603069,0.79375 0.603069,-0.79375 m -1.206151,0.79375 0.301535,0.26458 -0.301535,-0.26458 m -18.996934,8.20208 c 1.184748,-0.54557 1.436536,-1.23931 1.507697,-2.38125 h -1.507697 v -0.79375 l 1.206162,0.26458 0.904616,-0.52916 c -2.261237,-2.73765 -2.562784,2.16693 -2.110778,3.43958 m 0.301547,0.52917 v 1.32291 l 0.904615,-0.52916 v -0.26459 l -0.904615,-0.52916 m -32.86772,26.45833 c -2.983722,1.96638 0.955879,4.71408 3.461964,2.97868 4.518259,-3.12897 -1.338831,-6.42303 -1.51311,-9.593 -0.145947,-2.65298 2.390294,-0.9861 2.574226,0.79348 2.34236,-2.21085 -1.047839,-4.77017 -3.048547,-2.55481 -3.281052,3.63299 2.231982,6.24707 2.066445,9.43398 -0.17037,3.28031 -3.328087,1.06389 -3.540978,-1.05833 m 22.313863,-3.43959 0.301535,2.38125 c 2.261842,-1.12262 1.145247,-3.95128 -1.049958,-2.44924 -2.230478,1.52585 -1.225149,4.39658 -3.774656,5.62424 l -0.301535,-0.26458 c 0.467984,-1.44701 1.406973,-3.21892 1.156997,-4.74689 -0.362143,-2.21509 -2.771436,0.20611 -3.267775,1.04272 h -0.301535 l 0.603081,-2.11666 c -3.226769,0.76332 -1.700074,4.30397 -3.618463,6.08541 l 0.603069,-6.08541 -1.809232,0.79375 c -1.111774,-1.3462 -2.604986,-0.29528 -3.452914,0.80433 -1.359939,1.76292 -1.191985,3.80894 -0.768619,5.81025 1.757365,-0.0183 2.648715,-0.37544 3.316917,-1.85208 h 0.301547 c 0.05824,1.55151 1.363551,2.46115 2.412301,0.79375 h 0.301546 c 0.331383,0.87868 0.780985,0.98875 1.809232,1.05833 0,-2.36405 0.224641,-4.19179 2.412302,-5.82083 -0.902508,2.73764 -2.420143,7.59619 2.713848,4.7625 0.702893,1.53405 3.047054,1.31127 3.920009,0 h 0.301535 v 1.05833 h 1.507697 c 0,-2.35664 0.08137,-4.31006 2.412302,-5.82083 -0.0775,1.5613 -1.104834,3.20384 -0.855462,4.74689 0.306971,1.89971 2.617352,0.76835 3.267775,-0.24898 3.663389,4.67651 6.020519,-3.87376 9.347694,-3.96875 l -0.60307,1.32292 2.412301,-3.43958 c -0.979093,0.15716 -2.946329,-0.15187 -3.666706,0.43471 -1.446485,1.17739 -1.82521,5.15673 -4.165461,5.37633 -2.800383,0.263 1.214903,-3.15489 1.364463,-3.69438 0.317821,-1.14644 -0.506277,-2.37066 -1.971761,-1.91505 -3.140222,0.97578 -1.29933,4.96517 -4.526692,5.61922 0.561768,-1.30678 2.475325,-6.81487 -0.904616,-5.29167 0.844008,-1.90949 1.900896,-3.75364 1.206151,-5.82083 -5.857079,1.52744 -2.377633,7.72187 -5.34989,10.73203 -1.033981,1.04722 -2.059516,0.0302 -2.329094,-0.94377 -0.397427,-1.43563 0.200833,-2.76437 1.045137,-3.96743 m 23.821549,3.43959 h -0.301535 c -1.478441,3.46525 3.225561,4.88632 4.988351,1.85076 2.029657,-3.49488 -2.397839,-5.38612 -2.486186,-8.46508 -0.07602,-2.63737 2.442765,-0.95673 2.623984,0.79348 2.479862,-2.34076 -1.361442,-4.78287 -3.248172,-2.33124 -2.762694,3.58987 1.96996,5.82586 2.202738,8.94556 0.06815,0.9107 -0.964312,2.61329 -2.219012,1.92194 -0.999608,-0.55087 -1.204054,-1.8161 -1.560168,-2.71542 m 10.553856,1.5875 -0.301546,-0.26459 c 0.327781,-1.20517 1.074085,-3.51155 0.421257,-4.67836 -1.109666,-1.98331 -3.809643,0.74136 -4.20013,1.76901 -0.45261,1.19141 -0.788221,3.00037 -0.173082,4.19311 0.935672,1.81504 3.025628,0.35984 3.65042,-0.75459 l 2.110767,0.26458 c 0.572025,1.65339 2.617659,1.61555 3.618463,0.26459 H 83.069 l 0.301534,1.05833 c 2.862507,-0.0823 3.827731,-2.73209 4.824615,-4.7625 1.002616,1.44754 0.857878,2.40401 0.301546,3.96875 h -0.603081 l -0.603081,-1.05833 c -1.398231,1.4433 0.474925,2.51645 1.903312,1.39118 2.525391,-1.98967 0.347372,-4.62069 0.810536,-6.94743 l -1.809232,0.26458 -2.713848,5.55625 h -0.60307 l 0.904616,-5.82083 c -3.197217,0.7747 -1.196201,4.37462 -3.65736,5.58535 -1.346981,0.66252 -1.87286,-1.03452 -1.595749,-1.88119 1.04303,-3.1869 3.761995,-5.36575 2.539262,-8.99583 -4.966641,1.75128 -1.963624,8.31638 -5.427696,10.84792 m -46.436946,-6.61459 c 1.646099,-0.58525 2.45211,-1.73751 3.015382,-3.175 -1.913569,0.13388 -2.456338,1.73647 -3.015382,3.175 m 18.393853,-3.175 -2.110767,5.82084 h -0.301546 c 0.325058,-1.9394 0.704694,-4.45109 2.412313,-5.82084 m 33.169242,0 c -0.0023,2.2532 -0.599457,4.09417 -1.809231,6.08542 h -0.301535 l 2.110766,-6.08542 m 1.809232,0.52917 c -0.381745,2.72442 1.676859,2.49211 1.809232,0 h -1.809232 m -53.673874,4.23333 c 0.616347,1.83013 0.577747,5.15171 -2.110766,5.55625 0,-2.19127 -0.01744,-4.09072 2.110766,-5.55625 m 17.790784,0 -0.301535,0.26459 0.301535,-0.26459 m 5.72923,0 c 0.440552,1.34568 0.208971,2.43153 -1.206151,3.175 l 1.206151,-3.175 m 22.615398,0 c -0.632029,1.74969 0.163737,5.21494 -2.110767,5.82084 -0.553927,-2.041 -0.636553,-5.13609 2.110767,-5.82084 m -17.187702,3.175 -2.110767,3.70417 c 2.812749,-0.20584 5.229882,0.2966 5.427696,-2.91042 h -0.301535 c -1.058404,1.35017 -1.892463,1.17661 -3.618464,1.05834 l 0.60307,-1.85209 m -33.101706,6.55056 c -2.254001,0.84111 -1.242631,5.95339 1.284857,4.85907 2.196413,-0.95065 1.607806,-5.93884 -1.284857,-4.85907 m 4.455543,-0.20056 0.301535,1.5875 c -2.778981,0.42334 -1.662385,4.15185 1.507697,3.43959 l -0.603082,-5.02709 h -1.20615 m 12.363076,0 c 0.75867,1.73726 0.75867,3.28983 0,5.02709 l 1.809232,0.26458 -0.301535,-5.29167 h -1.507697 m 8.44309,0 0.301535,1.05834 h 0.301534 l 0.301547,-1.05834 h -0.904616 m 6.332311,0 c 0.07362,1.79758 -1.650019,5.11837 0.904616,5.29167 l -0.603081,-1.5875 h 1.507697 l -0.301546,1.5875 h 1.507697 l -1.206151,-4.23333 0.60307,-1.05834 h -2.412302 m 18.996923,0 0.603081,1.85209 c -2.363763,-0.31406 -1.722081,2.19683 -1.206151,3.43958 h 2.412302 l -0.301535,-5.29167 h -1.507697 m -37.390787,0.26459 c -0.787013,1.23878 -1.543871,4.79716 0.904616,4.7625 v -3.43959 l -0.904616,-1.32291 m -12.642001,0.9689 c 1.576739,-0.16166 1.575234,2.62546 0.230978,2.7903 -1.574641,0.19288 -1.863811,-2.62308 -0.230978,-2.7903 m 32.242016,0.0894 -0.603081,1.5875 0.603081,-1.5875 m -25.552382,0.48974 c -1.530616,0.48102 -1.04483,3.74174 0.662777,3.21284 1.551415,-0.48048 1.242347,-3.81159 -0.662777,-3.21284 m 1.730833,-0.22516 v 3.43959 l 1.809232,0.26458 -0.603081,-2.91042 h 0.904616 v 2.91042 h 1.206151 l -0.60307,-3.70417 h -2.713848 m 6.109164,0.22516 c -1.562869,0.49107 -0.916674,3.79307 0.693844,3.21654 1.537545,-0.55006 1.200726,-3.81185 -0.693844,-3.21654 m 4.570729,0.0622 c -1.302043,0.67892 -0.532524,3.84625 0.954066,2.95328 1.166354,-0.70062 0.707111,-3.819 -0.954066,-2.95328 m 2.5878,-0.28734 c -0.251777,1.19116 -0.781281,3.46949 1.206162,3.43959 -1.047554,1.41763 -4.585203,0.79375 -6.332311,0.79375 H 24.872046 c 0.748413,1.01309 2.048655,0.79375 3.316918,0.79375 h 9.046159 34.07387 c 2.376721,0 9.808749,1.03081 11.156926,-0.79375 H 51.105908 v -3.43959 h 0.904616 l -0.301547,2.91042 h 1.507697 l -0.301534,-3.70417 h -3.92001 m 4.523079,1.05834 h 1.507697 c -1.362354,0.74559 -1.508597,1.36048 -0.904616,2.64583 h 2.110767 c -0.16735,-1.16178 -0.959491,-5.42951 -2.713848,-2.64583 m 7.538474,-1.05834 1.206151,3.70417 h 0.904616 l 0.603081,-2.91042 2.110766,0.26459 c -1.362354,0.74559 -1.508597,1.36048 -0.904616,2.64583 h 3.919999 l -0.603081,-2.91042 h 0.904616 v 2.91042 h 1.206162 c -0.600061,-2.24102 -0.398943,-3.60204 -3.316929,-3.70417 l 0.603081,2.91042 h -0.904616 c -0.0034,-1.17951 -0.173994,-3.60601 -2.110767,-2.38125 l -3.618463,-0.52917 m 9.649229,0 v 1.32292 l 1.20615,-0.52917 -1.20615,2.91042 h 2.110766 v -1.5875 h -0.301535 l -1.20615,0.79375 1.507685,-2.91042 h -2.110766 m 2.713847,1.05834 1.206151,-0.26459 c -1.580659,1.51686 -1.134385,3.22078 1.507697,2.64584 -0.351897,-0.80592 -1.638258,-5.21415 -2.713848,-2.38125 m 6.030777,0 h 1.507686 c -1.344257,0.73554 -1.581263,1.38218 -0.904616,2.64583 l 0.603081,-0.52917 h 0.301535 l 1.206162,0.52917 c -0.167361,-1.16178 -0.959503,-5.42951 -2.713848,-2.64583 m -16.283086,-0.52917 -0.301535,1.5875 h -0.301547 v -1.5875 h 0.603082 m -31.661557,0.26458 -0.301535,2.11667 h -0.301547 v -2.11667 h 0.603082 m 2.713847,0 h 0.301535 v 2.11667 H 34.21974 v -2.11667 m 8.141544,0 v 2.11667 h -0.301535 l 0.301535,-2.11667 m 4.523079,0 h 0.301535 c 0.283448,0.91282 0.317821,1.54544 -0.60307,2.11667 l 0.301535,-2.11667 m 3.316929,0 v 2.11667 c -0.920902,-0.57123 -0.886529,-1.20385 -0.603081,-2.11667 h 0.603081 m 27.440012,0 v 2.11667 h -0.301546 l 0.301546,-2.11667 m -22.615398,1.05834 -0.301535,1.05833 h -0.301546 v -1.05833 h 0.603081 m 10.855391,0 -0.301546,1.05833 h -0.301535 v -1.05833 h 0.603081 m 8.744613,0 v 1.05833 h -0.60307 v -1.05833 h 0.60307 m 6.332312,0 -0.301535,1.05833 h -0.301535 v -1.05833 z"
       id="path273" />
  </g>
</svg>
